<svg xmlns="http://www.w3.org/2000/svg" xmlns:xlink="http://www.w3.org/1999/xlink" width="1344" zoomAndPan="magnify" viewBox="0 0 1008 287.999989" height="384" preserveAspectRatio="xMidYMid meet" version="1.0"><defs><g/><clipPath id="3eddc0ca52"><path d="M 22.695312 37.777344 L 234.945312 37.777344 L 234.945312 250.027344 L 22.695312 250.027344 Z M 22.695312 37.777344 " clip-rule="nonzero"/></clipPath><clipPath id="43eecb662c"><path d="M 101 43 L 234.945312 43 L 234.945312 171 L 101 171 Z M 101 43 " clip-rule="nonzero"/></clipPath></defs><g clip-path="url(#3eddc0ca52)"><path fill="#0e5b60" d="M 235.148438 143.988281 C 235.148438 144.238281 235.148438 144.515625 235.128906 144.769531 C 235.097656 150.003906 234.6875 155.148438 233.902344 160.179688 C 230.203125 184.480469 218.273438 206.054688 201.046875 221.972656 L 201.027344 221.972656 C 182.078125 239.507812 156.734375 250.226562 128.90625 250.226562 C 115.289062 250.226562 102.269531 247.671875 90.324219 242.984375 C 88.84375 242.421875 87.375 241.808594 85.921875 241.164062 C 65.710938 232.210938 48.839844 217.152344 37.609375 198.300781 C 31.972656 188.824219 27.742188 178.394531 25.253906 167.320312 C 23.570312 159.800781 22.683594 151.992188 22.683594 143.988281 C 22.683594 141.175781 22.785156 138.394531 23.023438 135.65625 C 24.816406 112.355469 34.136719 91.167969 48.554688 74.523438 C 54.105469 68.109375 60.414062 62.367188 67.335938 57.445312 L 67.351562 57.429688 C 69.226562 56.101562 71.148438 54.804688 73.128906 53.597656 C 85.195312 46.132812 98.859375 41 113.5 38.871094 C 118.527344 38.132812 123.675781 37.761719 128.90625 37.761719 C 141.378906 37.761719 153.375 39.925781 164.488281 43.882812 C 182.453125 50.253906 198.164062 61.332031 210.199219 75.609375 C 225.777344 94.089844 235.148438 117.945312 235.148438 143.988281 " fill-opacity="1" fill-rule="nonzero"/></g><path fill="#3e9b8a" d="M 143.101562 227.125 C 143.101562 227.125 137.316406 219.058594 137.960938 205.226562 C 138.597656 191.394531 137.316406 189.089844 128.324219 186.207031 C 119.328125 183.324219 110.332031 178.136719 109.050781 171.222656 C 107.765625 164.304688 115.472656 148.167969 115.472656 148.167969 C 115.472656 148.167969 125.753906 141.253906 134.746094 142.402344 C 143.738281 143.558594 159.160156 143.558594 166.226562 149.898438 C 173.292969 156.234375 177.785156 170.644531 181 171.222656 C 184.210938 171.796875 176.503906 196.582031 175.21875 200.617188 C 173.933594 204.648438 170.082031 220.789062 166.871094 227.125 C 163.65625 233.46875 160.445312 239.230469 157.871094 239.230469 C 155.304688 239.230469 143.738281 240.386719 143.101562 227.125 " fill-opacity="1" fill-rule="nonzero"/><path fill="#3e9b8a" d="M 93.183594 225.808594 C 92.625 228.53125 91.621094 235.777344 90.324219 242.984375 C 88.84375 242.421875 87.375 241.808594 85.921875 241.164062 C 65.710938 232.210938 48.839844 217.152344 37.609375 198.300781 C 31.972656 188.824219 27.742188 178.394531 25.253906 167.320312 C 29.171875 165.234375 34.082031 163.363281 38.90625 163.449219 C 49.472656 163.65625 50.800781 166.253906 59.796875 172.707031 C 68.777344 179.167969 75.816406 195.289062 79.621094 195.5625 C 83.417969 195.820312 94.160156 220.964844 93.183594 225.808594 " fill-opacity="1" fill-rule="nonzero"/><g clip-path="url(#43eecb662c)"><path fill="#3e9b8a" d="M 235.148438 143.988281 C 235.148438 144.238281 235.148438 144.515625 235.128906 144.769531 C 235.097656 150.003906 234.6875 155.148438 233.902344 160.179688 C 229.132812 153.171875 223.984375 142.65625 221.359375 140.816406 C 217.320312 137.96875 202.515625 136.265625 207.898438 143.660156 C 213.285156 151.078125 215.5625 151.078125 215.5625 151.078125 C 215.5625 151.078125 205.203125 171.9375 197.808594 169.910156 C 190.398438 167.898438 175.585938 140.816406 175.585938 140.816406 C 166.839844 133.933594 183.664062 128.855469 183.664062 128.855469 C 183.664062 128.855469 189.050781 124.148438 180.96875 118.761719 C 172.894531 113.378906 166.839844 124.816406 161.457031 123.46875 C 156.074219 122.121094 154.722656 127.503906 153.039062 132.890625 C 151.351562 138.273438 146.441406 141.5 145.300781 132.890625 C 144.140625 124.285156 131.835938 129.535156 127.800781 129.535156 C 123.757812 129.535156 115.683594 143.660156 108.265625 143.660156 C 100.871094 143.660156 100.871094 133.574219 102.21875 128.855469 C 103.566406 124.148438 115 119.425781 125.769531 118.761719 C 136.542969 118.085938 126.453125 108.65625 129.8125 106.832031 C 133.183594 104.992188 143.277344 107.992188 153.039062 112.03125 C 162.789062 116.074219 172.894531 106.644531 181.652344 106.832031 C 190.398438 107.023438 162.804688 99.914062 171.546875 93.179688 C 180.308594 86.453125 161.457031 80.386719 162.121094 72.988281 C 162.804688 65.578125 156.734375 56.832031 156.734375 48.753906 C 156.734375 46.179688 159.601562 44.507812 164.488281 43.882812 C 182.453125 50.253906 198.164062 61.332031 210.199219 75.609375 C 225.777344 94.089844 235.148438 117.945312 235.148438 143.988281 " fill-opacity="1" fill-rule="nonzero"/></g><path fill="#3e9b8a" d="M 84.761719 108.074219 C 84.761719 108.074219 88.664062 112.683594 91.671875 108.074219 C 94.683594 103.460938 95.109375 99.785156 93.226562 99.457031 C 91.335938 99.117188 80.132812 106.15625 84.761719 108.074219 " fill-opacity="1" fill-rule="nonzero"/><path fill="#3e9b8a" d="M 62.027344 108.074219 C 62.027344 108.074219 70.050781 106.027344 71.832031 102.015625 C 73.617188 98 83.871094 99.785156 86.542969 95.769531 C 89.21875 91.757812 96.140625 90.328125 97.808594 86.585938 C 99.472656 82.847656 101.28125 77.054688 94.359375 76.601562 C 87.4375 76.160156 80.609375 73.042969 80.683594 76.601562 C 80.75 80.171875 78.96875 79.277344 72.726562 81.507812 C 66.488281 83.738281 59.796875 80.519531 59.796875 86.585938 C 59.796875 92.65625 61.585938 99.4375 61.585938 99.4375 C 61.585938 99.4375 58.015625 104.332031 62.027344 108.074219 " fill-opacity="1" fill-rule="nonzero"/><path fill="#3e9b8a" d="M 113.5 38.871094 C 113.5 38.871094 101.554688 54.824219 99.335938 55.25 C 97.109375 55.671875 90.273438 60.355469 89.011719 65.050781 C 87.734375 69.738281 78.785156 72.714844 71.96875 69.738281 C 65.152344 66.75 63.582031 63.464844 67.335938 57.445312 L 67.351562 57.429688 C 69.226562 56.101562 71.148438 54.804688 73.128906 53.597656 C 85.195312 46.132812 98.859375 41 113.5 38.871094 " fill-opacity="1" fill-rule="nonzero"/><path fill="#3e9b8a" d="M 46.542969 101.550781 C 45.414062 104.960938 45.691406 108.933594 42.011719 110.121094 C 38.308594 111.316406 39.726562 115.746094 37.171875 121.421875 C 34.871094 126.539062 25.003906 134.171875 23.023438 135.65625 C 24.816406 112.355469 34.136719 91.167969 48.554688 74.523438 C 50.054688 79.074219 49.472656 86.585938 50.800781 89.039062 C 52.796875 92.738281 47.679688 98.140625 46.542969 101.550781 " fill-opacity="1" fill-rule="nonzero"/><g fill="#e27d60" fill-opacity="1"><g transform="translate(78.103031, 183.749985)"><g><path d="M 28 -62.53125 L 39.296875 -62.53125 L 46.453125 -41.765625 L 53.6875 -62.53125 L 64.90625 -62.53125 L 54.140625 -34 L 62.078125 -14.046875 L 79.828125 -62.703125 L 93.078125 -62.703125 L 68 0 L 57.484375 0 L 46.453125 -26.3125 L 35.5 0 L 25 0 L 0 -62.703125 L 13.0625 -62.703125 L 30.90625 -14.046875 L 38.6875 -34 Z M 28 -62.53125 "/></g></g></g><g fill="#e27d60" fill-opacity="1"><g transform="translate(171.096031, 183.749985)"><g><path d="M 33.296875 0.4375 C 28.703125 0.4375 24.535156 -0.441406 20.796875 -2.203125 C 17.054688 -3.972656 13.847656 -6.375 11.171875 -9.40625 C 8.492188 -12.4375 6.414062 -15.847656 4.9375 -19.640625 C 3.46875 -23.441406 2.734375 -27.34375 2.734375 -31.34375 C 2.734375 -35.53125 3.515625 -39.519531 5.078125 -43.3125 C 6.640625 -47.113281 8.785156 -50.5 11.515625 -53.46875 C 14.253906 -56.445312 17.492188 -58.800781 21.234375 -60.53125 C 24.972656 -62.269531 29.082031 -63.140625 33.5625 -63.140625 C 38.09375 -63.140625 42.226562 -62.226562 45.96875 -60.40625 C 49.707031 -58.582031 52.898438 -56.140625 55.546875 -53.078125 C 58.191406 -50.015625 60.25 -46.597656 61.71875 -42.828125 C 63.195312 -39.054688 63.9375 -35.171875 63.9375 -31.171875 C 63.9375 -27.054688 63.171875 -23.097656 61.640625 -19.296875 C 60.109375 -15.492188 57.972656 -12.109375 55.234375 -9.140625 C 52.503906 -6.171875 49.269531 -3.832031 45.53125 -2.125 C 41.789062 -0.414062 37.710938 0.4375 33.296875 0.4375 Z M 15.09375 -31.34375 C 15.09375 -28.632812 15.503906 -26.015625 16.328125 -23.484375 C 17.160156 -20.953125 18.351562 -18.703125 19.90625 -16.734375 C 21.46875 -14.765625 23.382812 -13.203125 25.65625 -12.046875 C 27.925781 -10.898438 30.5 -10.328125 33.375 -10.328125 C 36.320312 -10.328125 38.941406 -10.929688 41.234375 -12.140625 C 43.535156 -13.347656 45.453125 -14.96875 46.984375 -17 C 48.515625 -19.03125 49.675781 -21.296875 50.46875 -23.796875 C 51.257812 -26.296875 51.65625 -28.8125 51.65625 -31.34375 C 51.65625 -34.050781 51.226562 -36.65625 50.375 -39.15625 C 49.53125 -41.664062 48.328125 -43.90625 46.765625 -45.875 C 45.203125 -47.851562 43.285156 -49.414062 41.015625 -50.5625 C 38.753906 -51.707031 36.207031 -52.28125 33.375 -52.28125 C 30.375 -52.28125 27.738281 -51.675781 25.46875 -50.46875 C 23.207031 -49.257812 21.3125 -47.65625 19.78125 -45.65625 C 18.25 -43.65625 17.082031 -41.414062 16.28125 -38.9375 C 15.488281 -36.46875 15.09375 -33.9375 15.09375 -31.34375 Z M 15.09375 -31.34375 "/></g></g></g><g fill="#e27d60" fill-opacity="1"><g transform="translate(237.860239, 183.749985)"><g><path d="M 6.53125 0 L 6.53125 -62.703125 L 34.265625 -62.703125 C 37.148438 -62.703125 39.8125 -62.113281 42.25 -60.9375 C 44.695312 -59.757812 46.816406 -58.164062 48.609375 -56.15625 C 50.410156 -54.15625 51.796875 -51.921875 52.765625 -49.453125 C 53.734375 -46.984375 54.21875 -44.453125 54.21875 -41.859375 C 54.21875 -39.210938 53.757812 -36.664062 52.84375 -34.21875 C 51.9375 -31.78125 50.628906 -29.644531 48.921875 -27.8125 C 47.210938 -25.988281 45.210938 -24.578125 42.921875 -23.578125 L 57.21875 0 L 43.796875 0 L 30.90625 -21.015625 L 18.71875 -21.015625 L 18.71875 0 Z M 18.71875 -31.703125 L 34 -31.703125 C 35.53125 -31.703125 36.882812 -32.15625 38.0625 -33.0625 C 39.238281 -33.976562 40.179688 -35.203125 40.890625 -36.734375 C 41.597656 -38.265625 41.953125 -39.972656 41.953125 -41.859375 C 41.953125 -43.859375 41.535156 -45.609375 40.703125 -47.109375 C 39.878906 -48.609375 38.832031 -49.800781 37.5625 -50.6875 C 36.300781 -51.570312 34.9375 -52.015625 33.46875 -52.015625 L 18.71875 -52.015625 Z M 18.71875 -31.703125 "/></g></g></g><g fill="#e27d60" fill-opacity="1"><g transform="translate(296.588006, 183.749985)"><g><path d="M 6.53125 0 L 6.53125 -62.703125 L 18.71875 -62.703125 L 18.71875 -10.6875 L 50.6875 -10.6875 L 50.6875 0 Z M 6.53125 0 "/></g></g></g><g fill="#e27d60" fill-opacity="1"><g transform="translate(348.162472, 183.749985)"><g><path d="M 6.53125 0 L 6.53125 -62.703125 L 29.3125 -62.703125 C 36.144531 -62.703125 41.859375 -61.300781 46.453125 -58.5 C 51.046875 -55.707031 54.488281 -51.941406 56.78125 -47.203125 C 59.082031 -42.460938 60.234375 -37.207031 60.234375 -31.4375 C 60.234375 -25.082031 58.96875 -19.546875 56.4375 -14.828125 C 53.90625 -10.117188 50.328125 -6.46875 45.703125 -3.875 C 41.078125 -1.289062 35.613281 0 29.3125 0 Z M 47.953125 -31.4375 C 47.953125 -35.5 47.210938 -39.078125 45.734375 -42.171875 C 44.265625 -45.265625 42.144531 -47.675781 39.375 -49.40625 C 36.613281 -51.144531 33.257812 -52.015625 29.3125 -52.015625 L 18.71875 -52.015625 L 18.71875 -10.6875 L 29.3125 -10.6875 C 33.320312 -10.6875 36.707031 -11.582031 39.46875 -13.375 C 42.238281 -15.175781 44.34375 -17.648438 45.78125 -20.796875 C 47.226562 -23.941406 47.953125 -27.488281 47.953125 -31.4375 Z M 47.953125 -31.4375 "/></g></g></g><g fill="#e27d60" fill-opacity="1"><g transform="translate(411.394187, 183.749985)"><g><path d="M 6.53125 0 L 6.53125 -62.703125 L 18.71875 -62.703125 L 18.71875 -10.6875 L 50.6875 -10.6875 L 50.6875 0 Z M 6.53125 0 "/></g></g></g><g fill="#e27d60" fill-opacity="1"><g transform="translate(462.968631, 183.749985)"><g><path d="M 13.59375 -62.703125 L 29.0625 -33.203125 L 44.78125 -62.703125 L 57.9375 -62.703125 L 35.140625 -21.90625 L 35.140625 0 L 23.046875 0 L 23.046875 -22.078125 L 0.359375 -62.703125 Z M 13.59375 -62.703125 "/></g></g></g><g fill="#e27d60" fill-opacity="1"><g transform="translate(521.25485, 183.749985)"><g/></g></g><g fill="#e27d60" fill-opacity="1"><g transform="translate(542.449856, 183.749985)"><g><path d="M 28 -62.53125 L 39.296875 -62.53125 L 46.453125 -41.765625 L 53.6875 -62.53125 L 64.90625 -62.53125 L 54.140625 -34 L 62.078125 -14.046875 L 79.828125 -62.703125 L 93.078125 -62.703125 L 68 0 L 57.484375 0 L 46.453125 -26.3125 L 35.5 0 L 25 0 L 0 -62.703125 L 13.0625 -62.703125 L 30.90625 -14.046875 L 38.6875 -34 Z M 28 -62.53125 "/></g></g></g><g fill="#e27d60" fill-opacity="1"><g transform="translate(635.442845, 183.749985)"><g><path d="M 50.078125 -10.6875 L 50.078125 0 L 6.53125 0 L 6.53125 -62.703125 L 49.28125 -62.703125 L 49.28125 -52.015625 L 18.71875 -52.015625 L 18.71875 -36.921875 L 45.125 -36.921875 L 45.125 -27.03125 L 18.71875 -27.03125 L 18.71875 -10.6875 Z M 50.078125 -10.6875 "/></g></g></g><g fill="#e27d60" fill-opacity="1"><g transform="translate(688.518616, 183.749985)"><g><path d="M 23.578125 -62.703125 L 35.9375 -62.703125 L 59 0 L 46.453125 0 L 40.625 -15.625 L 18.71875 -15.625 L 12.984375 0 L 0.4375 0 Z M 38.421875 -24.203125 L 29.765625 -50.078125 L 20.75 -24.203125 Z M 38.421875 -24.203125 "/></g></g></g><g fill="#e27d60" fill-opacity="1"><g transform="translate(747.864604, 183.749985)"><g><path d="M 53.421875 -52.015625 L 33.375 -52.015625 L 33.375 0 L 21.28125 0 L 21.28125 -52.015625 L 1.234375 -52.015625 L 1.234375 -62.703125 L 53.421875 -62.703125 Z M 53.421875 -52.015625 "/></g></g></g><g fill="#e27d60" fill-opacity="1"><g transform="translate(802.530005, 183.749985)"><g><path d="M 59.25 -62.703125 L 59.25 0 L 47.15625 0 L 47.15625 -26.765625 L 18.71875 -26.765625 L 18.71875 0 L 6.53125 0 L 6.53125 -62.703125 L 18.71875 -62.703125 L 18.71875 -37.359375 L 47.15625 -37.359375 L 47.15625 -62.703125 Z M 59.25 -62.703125 "/></g></g></g><g fill="#e27d60" fill-opacity="1"><g transform="translate(868.322816, 183.749985)"><g><path d="M 50.078125 -10.6875 L 50.078125 0 L 6.53125 0 L 6.53125 -62.703125 L 49.28125 -62.703125 L 49.28125 -52.015625 L 18.71875 -52.015625 L 18.71875 -36.921875 L 45.125 -36.921875 L 45.125 -27.03125 L 18.71875 -27.03125 L 18.71875 -10.6875 Z M 50.078125 -10.6875 "/></g></g></g><g fill="#e27d60" fill-opacity="1"><g transform="translate(921.398586, 183.749985)"><g><path d="M 6.53125 0 L 6.53125 -62.703125 L 34.265625 -62.703125 C 37.148438 -62.703125 39.8125 -62.113281 42.25 -60.9375 C 44.695312 -59.757812 46.816406 -58.164062 48.609375 -56.15625 C 50.410156 -54.15625 51.796875 -51.921875 52.765625 -49.453125 C 53.734375 -46.984375 54.21875 -44.453125 54.21875 -41.859375 C 54.21875 -39.210938 53.757812 -36.664062 52.84375 -34.21875 C 51.9375 -31.78125 50.628906 -29.644531 48.921875 -27.8125 C 47.210938 -25.988281 45.210938 -24.578125 42.921875 -23.578125 L 57.21875 0 L 43.796875 0 L 30.90625 -21.015625 L 18.71875 -21.015625 L 18.71875 0 Z M 18.71875 -31.703125 L 34 -31.703125 C 35.53125 -31.703125 36.882812 -32.15625 38.0625 -33.0625 C 39.238281 -33.976562 40.179688 -35.203125 40.890625 -36.734375 C 41.597656 -38.265625 41.953125 -39.972656 41.953125 -41.859375 C 41.953125 -43.859375 41.535156 -45.609375 40.703125 -47.109375 C 39.878906 -48.609375 38.832031 -49.800781 37.5625 -50.6875 C 36.300781 -51.570312 34.9375 -52.015625 33.46875 -52.015625 L 18.71875 -52.015625 Z M 18.71875 -31.703125 "/></g></g></g></svg>