<svg xmlns="http://www.w3.org/2000/svg" xmlns:xlink="http://www.w3.org/1999/xlink" width="1344" zoomAndPan="magnify" viewBox="0 0 1008 287.999989" height="384" preserveAspectRatio="xMidYMid meet" version="1.0"><defs><g/><clipPath id="6e54682a74"><path d="M 53.070312 42.703125 L 254.820312 42.703125 L 254.820312 244.453125 L 53.070312 244.453125 Z M 53.070312 42.703125 " clip-rule="nonzero"/></clipPath><clipPath id="2690d03f71"><path d="M 128 48 L 254.820312 48 L 254.820312 169 L 128 169 Z M 128 48 " clip-rule="nonzero"/></clipPath><clipPath id="c7cfd59f6c"><path d="M 53.070312 77 L 81 77 L 81 136 L 53.070312 136 Z M 53.070312 77 " clip-rule="nonzero"/></clipPath><clipPath id="3937762dd9"><path d="M 10.417969 0 L 297.667969 0 L 297.667969 288 L 10.417969 288 Z M 10.417969 0 " clip-rule="nonzero"/></clipPath></defs><g clip-path="url(#6e54682a74)"><path fill="#0e5b60" d="M 255 143.65625 C 255 143.894531 255 144.15625 254.980469 144.398438 C 254.949219 149.371094 254.5625 154.261719 253.8125 159.042969 C 250.300781 182.140625 238.960938 202.648438 222.585938 217.777344 L 222.570312 217.777344 C 204.558594 234.441406 180.46875 244.632812 154.023438 244.632812 C 141.078125 244.632812 128.703125 242.203125 117.347656 237.746094 C 115.941406 237.214844 114.546875 236.628906 113.167969 236.015625 C 93.957031 227.507812 77.921875 213.195312 67.246094 195.277344 C 61.886719 186.273438 57.867188 176.355469 55.503906 165.832031 C 53.902344 158.6875 53.058594 151.265625 53.058594 143.65625 C 53.058594 140.984375 53.15625 138.339844 53.382812 135.738281 C 55.085938 113.589844 63.945312 93.453125 77.648438 77.632812 C 82.925781 71.535156 88.921875 66.078125 95.5 61.398438 L 95.515625 61.382812 C 97.296875 60.125 99.125 58.890625 101.003906 57.742188 C 112.476562 50.644531 125.460938 45.769531 139.375 43.746094 C 144.15625 43.046875 149.050781 42.691406 154.023438 42.691406 C 165.875 42.691406 177.277344 44.746094 187.839844 48.507812 C 204.914062 54.566406 219.847656 65.09375 231.285156 78.664062 C 246.09375 96.226562 255 118.90625 255 143.65625 " fill-opacity="1" fill-rule="nonzero"/></g><path fill="#3e9b8a" d="M 167.511719 222.675781 C 167.511719 222.675781 162.011719 215.007812 162.625 201.859375 C 163.234375 188.714844 162.011719 186.523438 153.464844 183.785156 C 144.917969 181.042969 136.367188 176.109375 135.148438 169.539062 C 133.925781 162.964844 141.253906 147.625 141.253906 147.625 C 141.253906 147.625 151.023438 141.054688 159.570312 142.148438 C 168.117188 143.246094 182.777344 143.246094 189.492188 149.273438 C 196.210938 155.296875 200.480469 168.992188 203.53125 169.539062 C 206.585938 170.089844 199.257812 193.644531 198.039062 197.480469 C 196.816406 201.3125 193.15625 216.652344 190.101562 222.675781 C 187.050781 228.703125 183.996094 234.179688 181.550781 234.179688 C 179.109375 234.179688 168.117188 235.277344 167.511719 222.675781 " fill-opacity="1" fill-rule="nonzero"/><path fill="#3e9b8a" d="M 120.066406 221.421875 C 119.535156 224.011719 118.582031 230.894531 117.347656 237.746094 C 115.941406 237.214844 114.546875 236.628906 113.167969 236.015625 C 93.957031 227.507812 77.921875 213.195312 67.246094 195.277344 C 61.886719 186.273438 57.867188 176.355469 55.503906 165.832031 C 59.226562 163.851562 63.894531 162.070312 68.480469 162.152344 C 78.519531 162.347656 79.785156 164.816406 88.335938 170.949219 C 96.871094 177.09375 103.5625 192.414062 107.175781 192.675781 C 110.785156 192.917969 120.996094 216.820312 120.066406 221.421875 " fill-opacity="1" fill-rule="nonzero"/><g clip-path="url(#2690d03f71)"><path fill="#3e9b8a" d="M 255 143.65625 C 255 143.894531 255 144.15625 254.980469 144.398438 C 254.949219 149.371094 254.5625 154.261719 253.8125 159.042969 C 249.28125 152.386719 244.386719 142.390625 241.894531 140.640625 C 238.054688 137.933594 223.980469 136.316406 229.097656 143.34375 C 234.21875 150.394531 236.386719 150.394531 236.386719 150.394531 C 236.386719 150.394531 226.539062 170.21875 219.507812 168.296875 C 212.464844 166.382812 198.386719 140.640625 198.386719 140.640625 C 190.074219 134.097656 206.066406 129.273438 206.066406 129.273438 C 206.066406 129.273438 211.183594 124.800781 203.503906 119.679688 C 195.828125 114.5625 190.074219 125.433594 184.957031 124.152344 C 179.84375 122.871094 178.558594 127.988281 176.957031 133.109375 C 175.355469 138.226562 170.6875 141.289062 169.601562 133.109375 C 168.5 124.925781 156.804688 129.921875 152.96875 129.921875 C 149.128906 129.921875 141.453125 143.34375 134.402344 143.34375 C 127.375 143.34375 127.375 133.757812 128.65625 129.273438 C 129.933594 124.800781 140.804688 120.3125 151.039062 119.679688 C 161.277344 119.035156 151.6875 110.074219 154.878906 108.339844 C 158.085938 106.59375 167.679688 109.441406 176.957031 113.28125 C 186.222656 117.125 195.828125 108.164062 204.152344 108.339844 C 212.464844 108.519531 186.238281 101.765625 194.546875 95.367188 C 202.875 88.96875 184.957031 83.203125 185.589844 76.171875 C 186.238281 69.128906 180.46875 60.816406 180.46875 53.140625 C 180.46875 50.695312 183.195312 49.105469 187.839844 48.507812 C 204.914062 54.566406 219.847656 65.09375 231.285156 78.664062 C 246.09375 96.226562 255 118.90625 255 143.65625 " fill-opacity="1" fill-rule="nonzero"/></g><path fill="#3e9b8a" d="M 112.0625 109.523438 C 112.0625 109.523438 115.769531 113.902344 118.628906 109.523438 C 121.492188 105.136719 121.898438 101.644531 120.109375 101.328125 C 118.3125 101.007812 107.664062 107.699219 112.0625 109.523438 " fill-opacity="1" fill-rule="nonzero"/><path fill="#3e9b8a" d="M 90.453125 109.523438 C 90.453125 109.523438 98.078125 107.574219 99.773438 103.761719 C 101.472656 99.945312 111.214844 101.644531 113.753906 97.828125 C 116.300781 94.015625 122.878906 92.65625 124.464844 89.097656 C 126.042969 85.542969 127.765625 80.035156 121.183594 79.605469 C 114.605469 79.1875 108.117188 76.222656 108.183594 79.605469 C 108.25 83.003906 106.554688 82.152344 100.625 84.269531 C 94.691406 86.390625 88.335938 83.332031 88.335938 89.097656 C 88.335938 94.863281 90.035156 101.3125 90.035156 101.3125 C 90.035156 101.3125 86.640625 105.964844 90.453125 109.523438 " fill-opacity="1" fill-rule="nonzero"/><path fill="#3e9b8a" d="M 139.375 43.746094 C 139.375 43.746094 128.023438 58.90625 125.914062 59.3125 C 123.796875 59.714844 117.300781 64.167969 116.101562 68.628906 C 114.886719 73.082031 106.378906 75.914062 99.90625 73.082031 C 93.425781 70.246094 91.933594 67.121094 95.5 61.398438 L 95.515625 61.382812 C 97.296875 60.125 99.125 58.890625 101.003906 57.742188 C 112.476562 50.644531 125.460938 45.769531 139.375 43.746094 " fill-opacity="1" fill-rule="nonzero"/><g clip-path="url(#c7cfd59f6c)"><path fill="#3e9b8a" d="M 75.738281 103.320312 C 74.664062 106.5625 74.925781 110.335938 71.429688 111.464844 C 67.910156 112.601562 69.257812 116.8125 66.828125 122.207031 C 64.640625 127.070312 55.265625 134.324219 53.382812 135.738281 C 55.085938 113.589844 63.945312 93.453125 77.648438 77.632812 C 79.074219 81.957031 78.519531 89.097656 79.785156 91.429688 C 81.679688 94.945312 76.820312 100.082031 75.738281 103.320312 " fill-opacity="1" fill-rule="nonzero"/></g><g fill="#e27d60" fill-opacity="1"><g transform="translate(101.455223, 172.88974)"><g><path d="M 26.609375 -59.421875 L 37.359375 -59.421875 L 44.15625 -39.703125 L 51.03125 -59.421875 L 61.6875 -59.421875 L 51.453125 -32.3125 L 59.015625 -13.34375 L 75.875 -59.59375 L 88.46875 -59.59375 L 64.625 0 L 54.640625 0 L 44.15625 -25.015625 L 33.75 0 L 23.75 0 L 0 -59.59375 L 12.421875 -59.59375 L 29.375 -13.34375 L 36.765625 -32.3125 Z M 26.609375 -59.421875 "/></g></g></g><g fill="#e27d60" fill-opacity="1"><g transform="translate(189.839014, 172.88974)"><g><path d="M 31.640625 0.421875 C 27.273438 0.421875 23.316406 -0.414062 19.765625 -2.09375 C 16.210938 -3.769531 13.160156 -6.050781 10.609375 -8.9375 C 8.066406 -11.820312 6.097656 -15.066406 4.703125 -18.671875 C 3.304688 -22.285156 2.609375 -25.992188 2.609375 -29.796875 C 2.609375 -33.765625 3.347656 -37.550781 4.828125 -41.15625 C 6.304688 -44.769531 8.347656 -47.988281 10.953125 -50.8125 C 13.554688 -53.644531 16.632812 -55.882812 20.1875 -57.53125 C 23.738281 -59.1875 27.640625 -60.015625 31.890625 -60.015625 C 36.203125 -60.015625 40.132812 -59.144531 43.6875 -57.40625 C 47.238281 -55.675781 50.273438 -53.351562 52.796875 -50.4375 C 55.316406 -47.53125 57.273438 -44.285156 58.671875 -40.703125 C 60.066406 -37.128906 60.765625 -33.4375 60.765625 -29.625 C 60.765625 -25.707031 60.035156 -21.941406 58.578125 -18.328125 C 57.128906 -14.722656 55.101562 -11.507812 52.5 -8.6875 C 49.894531 -5.863281 46.816406 -3.640625 43.265625 -2.015625 C 39.710938 -0.390625 35.835938 0.421875 31.640625 0.421875 Z M 14.359375 -29.796875 C 14.359375 -27.222656 14.75 -24.734375 15.53125 -22.328125 C 16.3125 -19.921875 17.441406 -17.78125 18.921875 -15.90625 C 20.410156 -14.03125 22.226562 -12.546875 24.375 -11.453125 C 26.53125 -10.367188 28.984375 -9.828125 31.734375 -9.828125 C 34.523438 -9.828125 37.007812 -10.398438 39.1875 -11.546875 C 41.375 -12.691406 43.195312 -14.226562 44.65625 -16.15625 C 46.113281 -18.082031 47.21875 -20.234375 47.96875 -22.609375 C 48.726562 -24.992188 49.109375 -27.390625 49.109375 -29.796875 C 49.109375 -32.367188 48.703125 -34.84375 47.890625 -37.21875 C 47.078125 -39.601562 45.925781 -41.734375 44.4375 -43.609375 C 42.957031 -45.484375 41.140625 -46.960938 38.984375 -48.046875 C 36.828125 -49.140625 34.410156 -49.6875 31.734375 -49.6875 C 28.878906 -49.6875 26.375 -49.113281 24.21875 -47.96875 C 22.0625 -46.820312 20.253906 -45.296875 18.796875 -43.390625 C 17.347656 -41.492188 16.242188 -39.367188 15.484375 -37.015625 C 14.734375 -34.660156 14.359375 -32.253906 14.359375 -29.796875 Z M 14.359375 -29.796875 "/></g></g></g><g fill="#e27d60" fill-opacity="1"><g transform="translate(253.294045, 172.88974)"><g><path d="M 6.21875 0 L 6.21875 -59.59375 L 32.5625 -59.59375 C 35.3125 -59.59375 37.84375 -59.03125 40.15625 -57.90625 C 42.476562 -56.789062 44.492188 -55.28125 46.203125 -53.375 C 47.910156 -51.476562 49.222656 -49.351562 50.140625 -47 C 51.066406 -44.65625 51.53125 -42.25 51.53125 -39.78125 C 51.53125 -37.269531 51.097656 -34.851562 50.234375 -32.53125 C 49.367188 -30.207031 48.125 -28.175781 46.5 -26.4375 C 44.875 -24.707031 42.972656 -23.363281 40.796875 -22.40625 L 54.390625 0 L 41.640625 0 L 29.375 -19.984375 L 17.796875 -19.984375 L 17.796875 0 Z M 17.796875 -30.140625 L 32.3125 -30.140625 C 33.769531 -30.140625 35.054688 -30.570312 36.171875 -31.4375 C 37.296875 -32.300781 38.191406 -33.457031 38.859375 -34.90625 C 39.535156 -36.363281 39.875 -37.988281 39.875 -39.78125 C 39.875 -41.6875 39.476562 -43.351562 38.6875 -44.78125 C 37.90625 -46.207031 36.910156 -47.335938 35.703125 -48.171875 C 34.503906 -49.015625 33.207031 -49.4375 31.8125 -49.4375 L 17.796875 -49.4375 Z M 17.796875 -30.140625 "/></g></g></g><g fill="#e27d60" fill-opacity="1"><g transform="translate(309.110964, 172.88974)"><g><path d="M 6.21875 0 L 6.21875 -59.59375 L 17.796875 -59.59375 L 17.796875 -10.15625 L 48.1875 -10.15625 L 48.1875 0 Z M 6.21875 0 "/></g></g></g><g fill="#e27d60" fill-opacity="1"><g transform="translate(358.129136, 172.88974)"><g><path d="M 6.21875 0 L 6.21875 -59.59375 L 27.875 -59.59375 C 34.363281 -59.59375 39.789062 -58.265625 44.15625 -55.609375 C 48.519531 -52.953125 51.789062 -49.367188 53.96875 -44.859375 C 56.15625 -40.359375 57.25 -35.363281 57.25 -29.875 C 57.25 -23.832031 56.046875 -18.570312 53.640625 -14.09375 C 51.234375 -9.625 47.832031 -6.15625 43.4375 -3.6875 C 39.039062 -1.226562 33.851562 0 27.875 0 Z M 45.578125 -29.875 C 45.578125 -33.738281 44.875 -37.140625 43.46875 -40.078125 C 42.070312 -43.015625 40.054688 -45.304688 37.421875 -46.953125 C 34.796875 -48.609375 31.613281 -49.4375 27.875 -49.4375 L 17.796875 -49.4375 L 17.796875 -10.15625 L 27.875 -10.15625 C 31.675781 -10.15625 34.890625 -11.007812 37.515625 -12.71875 C 40.148438 -14.425781 42.148438 -16.773438 43.515625 -19.765625 C 44.890625 -22.765625 45.578125 -26.132812 45.578125 -29.875 Z M 45.578125 -29.875 "/></g></g></g><g fill="#e27d60" fill-opacity="1"><g transform="translate(418.226763, 172.88974)"><g><path d="M 6.21875 0 L 6.21875 -59.59375 L 17.796875 -59.59375 L 17.796875 -10.15625 L 48.1875 -10.15625 L 48.1875 0 Z M 6.21875 0 "/></g></g></g><g fill="#e27d60" fill-opacity="1"><g transform="translate(467.244913, 172.88974)"><g><path d="M 12.921875 -59.59375 L 27.609375 -31.5625 L 42.5625 -59.59375 L 55.0625 -59.59375 L 33.40625 -20.8125 L 33.40625 0 L 21.90625 0 L 21.90625 -20.984375 L 0.328125 -59.59375 Z M 12.921875 -59.59375 "/></g></g></g><g fill="#e27d60" fill-opacity="1"><g transform="translate(522.642169, 172.88974)"><g/></g></g><g fill="#e27d60" fill-opacity="1"><g transform="translate(542.786642, 172.88974)"><g><path d="M 26.609375 -59.421875 L 37.359375 -59.421875 L 44.15625 -39.703125 L 51.03125 -59.421875 L 61.6875 -59.421875 L 51.453125 -32.3125 L 59.015625 -13.34375 L 75.875 -59.59375 L 88.46875 -59.59375 L 64.625 0 L 54.640625 0 L 44.15625 -25.015625 L 33.75 0 L 23.75 0 L 0 -59.59375 L 12.421875 -59.59375 L 29.375 -13.34375 L 36.765625 -32.3125 Z M 26.609375 -59.421875 "/></g></g></g><g fill="#e27d60" fill-opacity="1"><g transform="translate(631.170422, 172.88974)"><g><path d="M 47.59375 -10.15625 L 47.59375 0 L 6.21875 0 L 6.21875 -59.59375 L 46.84375 -59.59375 L 46.84375 -49.4375 L 17.796875 -49.4375 L 17.796875 -35.078125 L 42.890625 -35.078125 L 42.890625 -25.6875 L 17.796875 -25.6875 L 17.796875 -10.15625 Z M 47.59375 -10.15625 "/></g></g></g><g fill="#e27d60" fill-opacity="1"><g transform="translate(681.615486, 172.88974)"><g><path d="M 22.40625 -59.59375 L 34.15625 -59.59375 L 56.0625 0 L 44.15625 0 L 38.609375 -14.859375 L 17.796875 -14.859375 L 12.34375 0 L 0.421875 0 Z M 36.515625 -23 L 28.28125 -47.59375 L 19.71875 -23 Z M 36.515625 -23 "/></g></g></g><g fill="#e27d60" fill-opacity="1"><g transform="translate(738.019983, 172.88974)"><g><path d="M 50.78125 -49.4375 L 31.734375 -49.4375 L 31.734375 0 L 20.234375 0 L 20.234375 -49.4375 L 1.171875 -49.4375 L 1.171875 -59.59375 L 50.78125 -59.59375 Z M 50.78125 -49.4375 "/></g></g></g><g fill="#e27d60" fill-opacity="1"><g transform="translate(789.975887, 172.88974)"><g><path d="M 56.328125 -59.59375 L 56.328125 0 L 44.828125 0 L 44.828125 -25.4375 L 17.796875 -25.4375 L 17.796875 0 L 6.21875 0 L 6.21875 -59.59375 L 17.796875 -59.59375 L 17.796875 -35.5 L 44.828125 -35.5 L 44.828125 -59.59375 Z M 56.328125 -59.59375 "/></g></g></g><g fill="#e27d60" fill-opacity="1"><g transform="translate(852.507669, 172.88974)"><g><path d="M 47.59375 -10.15625 L 47.59375 0 L 6.21875 0 L 6.21875 -59.59375 L 46.84375 -59.59375 L 46.84375 -49.4375 L 17.796875 -49.4375 L 17.796875 -35.078125 L 42.890625 -35.078125 L 42.890625 -25.6875 L 17.796875 -25.6875 L 17.796875 -10.15625 Z M 47.59375 -10.15625 "/></g></g></g><g fill="#e27d60" fill-opacity="1"><g transform="translate(902.952733, 172.88974)"><g><path d="M 6.21875 0 L 6.21875 -59.59375 L 32.5625 -59.59375 C 35.3125 -59.59375 37.84375 -59.03125 40.15625 -57.90625 C 42.476562 -56.789062 44.492188 -55.28125 46.203125 -53.375 C 47.910156 -51.476562 49.222656 -49.351562 50.140625 -47 C 51.066406 -44.65625 51.53125 -42.25 51.53125 -39.78125 C 51.53125 -37.269531 51.097656 -34.851562 50.234375 -32.53125 C 49.367188 -30.207031 48.125 -28.175781 46.5 -26.4375 C 44.875 -24.707031 42.972656 -23.363281 40.796875 -22.40625 L 54.390625 0 L 41.640625 0 L 29.375 -19.984375 L 17.796875 -19.984375 L 17.796875 0 Z M 17.796875 -30.140625 L 32.3125 -30.140625 C 33.769531 -30.140625 35.054688 -30.570312 36.171875 -31.4375 C 37.296875 -32.300781 38.191406 -33.457031 38.859375 -34.90625 C 39.535156 -36.363281 39.875 -37.988281 39.875 -39.78125 C 39.875 -41.6875 39.476562 -43.351562 38.6875 -44.78125 C 37.90625 -46.207031 36.910156 -47.335938 35.703125 -48.171875 C 34.503906 -49.015625 33.207031 -49.4375 31.8125 -49.4375 L 17.796875 -49.4375 Z M 17.796875 -30.140625 "/></g></g></g><g clip-path="url(#3937762dd9)"><path fill="#e27d60" d="M 165.871094 288.003906 L 162.582031 251.917969 C 163.601562 251.824219 164.640625 251.714844 165.660156 251.589844 L 170.011719 287.566406 C 168.613281 287.734375 167.226562 287.878906 165.871094 288.003906 Z M 101.019531 279.246094 C 99.730469 278.761719 98.433594 278.246094 97.164062 277.726562 L 110.9375 244.222656 C 111.886719 244.613281 112.855469 244.996094 113.835938 245.359375 Z M 231.511719 265.203125 L 211.75 234.835938 C 212.617188 234.269531 213.480469 233.691406 214.3125 233.109375 L 234.933594 262.90625 C 233.824219 263.714844 232.671875 264.441406 231.511719 265.203125 Z M 43.84375 239.800781 C 42.933594 238.769531 42.027344 237.71875 41.148438 236.675781 L 68.921875 213.40625 C 69.578125 214.1875 70.253906 214.96875 70.945312 215.746094 Z M 279.011719 214.5625 L 247.429688 196.800781 C 247.933594 195.902344 248.433594 194.980469 248.914062 194.074219 L 280.984375 210.941406 C 280.347656 212.144531 279.6875 213.359375 279.011719 214.558594 Z M 11.492188 178.328125 C 11.160156 176.992188 10.847656 175.636719 10.558594 174.296875 L 45.976562 166.601562 C 46.195312 167.609375 46.425781 168.613281 46.699219 169.613281 Z M 297.53125 147.597656 L 261.292969 146.582031 C 261.292969 145.5625 261.335938 144.515625 261.335938 143.480469 L 261.335938 143.25 L 297.574219 143.175781 L 297.574219 143.515625 C 297.585938 144.859375 297.566406 146.21875 297.53125 147.582031 Z M 46.621094 117.484375 L 11.425781 108.875 C 11.753906 107.546875 12.101562 106.199219 12.464844 104.878906 L 47.402344 114.492188 C 47.136719 115.484375 46.875 116.492188 46.621094 117.484375 Z M 250.203125 95.421875 C 249.753906 94.507812 249.285156 93.582031 248.804688 92.675781 L 280.847656 75.746094 C 281.484375 76.964844 282.113281 78.195312 282.714844 79.417969 Z M 70.8125 71.339844 L 43.679688 47.328125 C 44.570312 46.3125 45.503906 45.292969 46.441406 44.285156 L 72.90625 69.035156 C 72.199219 69.796875 71.496094 70.570312 70.8125 71.339844 Z M 216.667969 55.496094 C 215.835938 54.886719 214.988281 54.285156 214.148438 53.707031 L 234.703125 23.859375 C 235.824219 24.636719 236.960938 25.441406 238.070312 26.253906 Z M 113.667969 41.644531 L 100.761719 7.785156 C 102.042969 7.292969 103.355469 6.8125 104.644531 6.335938 L 116.558594 40.558594 C 115.601562 40.921875 114.625 41.277344 113.667969 41.644531 Z M 168.480469 35.71875 C 167.472656 35.574219 166.445312 35.433594 165.414062 35.3125 L 169.683594 -0.671875 C 171.054688 -0.511719 172.429688 -0.324219 173.777344 -0.128906 Z M 168.480469 35.71875 " fill-opacity="1" fill-rule="nonzero"/></g></svg>